<svg width="24" height="24" viewBox="0 0 24 24" fill="none" xmlns="http://www.w3.org/2000/svg">
<path d="M18 3.25199C17.9997 3.58377 17.8661 3.90186 17.6284 4.13633L9.14972 10.5369C8.95362 10.7306 8.79806 10.9606 8.69193 11.2136C8.5858 11.4667 8.53118 11.738 8.53118 12.0119C8.53118 12.2859 8.5858 12.5571 8.69193 12.8102C8.79806 13.0633 8.95362 13.2933 9.14972 13.4869L17.62 19.8792C17.8507 20.1152 17.9784 20.4313 17.9755 20.7595C17.9726 21.0876 17.8394 21.4014 17.6046 21.6335C17.3697 21.8655 17.052 21.9971 16.7199 22C16.3878 22.0028 16.0678 21.8767 15.8289 21.6487L7.35861 15.2615C6.48862 14.4003 6 13.2332 6 12.0165C6 10.7998 6.48862 9.63279 7.35861 8.77159L15.8373 2.36682C16.0145 2.19169 16.2402 2.07241 16.486 2.02408C16.7318 1.97574 16.9866 2.00053 17.2181 2.09529C17.4497 2.19005 17.6475 2.35054 17.7867 2.55644C17.9259 2.76234 18.0001 3.0044 18 3.25199Z" fill="currentColor"/>
</svg>
