<svg width="43" height="49" viewBox="0 0 43 49" fill="none" xmlns="http://www.w3.org/2000/svg">
<g filter="url(#filter0_d_142_937)">
<path d="M26.4167 29.8889H19.4722C18.5517 29.8878 17.6691 29.5216 17.0182 28.8707C16.3673 28.2198 16.0011 27.3372 16 26.4167V19.4722C16.0011 18.5517 16.3673 17.6691 17.0182 17.0182C17.6691 16.3673 18.5517 16.0011 19.4722 16H26.4167C27.3372 16.0011 28.2198 16.3673 28.8707 17.0182C29.5216 17.6691 29.8878 18.5517 29.8889 19.4722V26.4167C29.8878 27.3372 29.5216 28.2198 28.8707 28.8707C28.2198 29.5216 27.3372 29.8878 26.4167 29.8889ZM32.6667 29.1944V20.1667C32.6667 19.9825 32.5935 19.8059 32.4633 19.6756C32.333 19.5454 32.1564 19.4722 31.9722 19.4722C31.788 19.4722 31.6114 19.5454 31.4812 19.6756C31.3509 19.8059 31.2778 19.9825 31.2778 20.1667V29.1944C31.2778 29.747 31.0583 30.2769 30.6676 30.6676C30.2769 31.0583 29.747 31.2778 29.1944 31.2778H20.1667C19.9825 31.2778 19.8059 31.3509 19.6756 31.4812C19.5454 31.6114 19.4722 31.788 19.4722 31.9722C19.4722 32.1564 19.5454 32.333 19.6756 32.4633C19.8059 32.5935 19.9825 32.6667 20.1667 32.6667H29.1944C30.115 32.6656 30.9975 32.2994 31.6485 31.6485C32.2994 30.9975 32.6656 30.115 32.6667 29.1944Z" fill="white"/>
</g>
<defs>
<filter id="filter0_d_142_937" x="-1.66663" y="-1.66667" width="52" height="52" filterUnits="userSpaceOnUse" color-interpolation-filters="sRGB">
<feFlood flood-opacity="0" result="BackgroundImageFix"/>
<feColorMatrix in="SourceAlpha" type="matrix" values="0 0 0 0 0 0 0 0 0 0 0 0 0 0 0 0 0 0 127 0" result="hardAlpha"/>
<feOffset/>
<feGaussianBlur stdDeviation="8"/>
<feColorMatrix type="matrix" values="0 0 0 0 0 0 0 0 0 0 0 0 0 0 0 0 0 0 0.5 0"/>
<feBlend mode="normal" in2="BackgroundImageFix" result="effect1_dropShadow_142_937"/>
<feBlend mode="normal" in="SourceGraphic" in2="effect1_dropShadow_142_937" result="shape"/>
</filter>
</defs>
</svg>

