
<svg width="194" height="50" viewBox="0 0 194 50" fill="none" xmlns="http://www.w3.org/2000/svg">
<path d="M9.98193 0.173781C6.01231 1.68503 1.64834 5.94911 0.270075 11.3055C-1.47545 18.0901 5.78837 20.9593 6.38414 20.02C7.08535 18.9143 5.08258 18.5405 4.67028 15.0202C4.13752 10.4734 6.46346 5.39284 9.39106 3.16365C9.93525 2.74949 9.90913 3.32593 9.90913 4.39217C9.90913 6.29918 9.79324 23.4154 9.79324 26.9879C9.79324 31.8216 9.57354 33.348 9.17886 34.856C8.77896 36.3844 8.13651 37.4172 8.62325 37.8153C9.16744 38.2603 11.4904 37.2018 12.8354 35.4959C14.4481 33.4501 15.0125 30.993 15.114 28.3247C15.2365 25.1082 15.2312 20.0043 15.2365 17.093C15.2413 14.423 15.2857 6.60445 15.1849 1.90427C15.1604 0.751402 11.6422 -0.458132 9.98193 0.173781ZM193.07 25.5672C192.494 25.5672 192.231 26.1065 192.014 27.0146C191.26 30.1721 190.467 30.8847 189.445 30.8847C188.303 30.8847 187.277 29.3213 187.014 26.192C186.806 23.7314 186.84 19.2009 187.105 14.6947C187.159 13.7688 186.878 12.8527 184.145 11.9505C182.969 11.5622 181.26 10.9911 180.409 12.858C178.005 18.1326 177.063 22.3204 176.842 24.0209C176.831 24.109 176.712 24.1268 176.691 23.9212C176.55 22.5589 176.234 20.0829 176.195 14.8813C176.188 13.8664 175.951 13.0025 174.718 12.2952C173.919 11.836 171.49 11.0246 170.615 11.9902C169.858 12.78 168.98 14.9054 168.068 17.4247C167.327 19.472 166.811 20.8572 166.811 20.8572C166.811 20.8572 166.821 15.3323 166.83 13.2366C166.834 12.4459 166.237 12.1822 166.057 12.1347C165.248 11.9211 163.652 11.5642 162.974 11.5642C162.138 11.5642 161.934 11.9888 161.934 12.6073C161.934 12.6883 161.802 19.8814 161.802 24.9112C161.802 25.1296 161.802 25.3681 161.803 25.6215C161.341 27.9331 159.842 31.0713 158.212 31.0713C156.579 31.0713 155.81 29.7594 155.81 23.7631C155.81 20.2653 155.925 18.744 155.982 16.2143C156.015 14.757 156.079 13.6377 156.075 13.384C156.063 12.6052 154.581 12.2128 153.891 12.0674C153.199 11.9214 152.597 11.8645 152.127 11.8888C151.461 11.9229 150.991 12.3196 150.991 12.8651C150.991 13.1577 150.994 13.7136 150.994 13.7136C150.138 12.4898 148.759 11.6381 147.842 11.3913C145.372 10.7249 142.795 11.3156 140.851 13.7875C139.306 15.7518 138.375 17.9768 138.008 21.1732C137.74 23.5097 137.827 25.8796 138.304 27.8836C137.728 30.1448 136.66 31.0713 135.49 31.0713C133.791 31.0713 132.56 28.552 132.703 24.1945C132.797 21.3283 133.428 19.3172 134.118 16.4074C134.412 15.1667 134.173 14.5176 133.574 13.8952C133.024 13.3241 131.853 13.0328 130.169 13.3914C128.97 13.6469 127.254 13.9222 125.686 14.1334C125.686 14.1334 125.781 13.7902 125.858 13.1849C126.266 10.0111 122.471 10.2687 121.261 11.2824C120.538 11.8876 120.046 12.6014 119.859 13.8848C119.563 15.9212 121.39 16.8821 121.39 16.8821C120.791 19.3771 119.321 22.6357 117.803 24.9919C116.991 26.2543 116.368 27.1897 115.566 28.1841C115.563 27.8145 115.561 27.4448 115.559 27.0752C115.541 21.8303 115.618 17.7024 115.651 16.2146C115.685 14.7573 115.749 13.6679 115.745 13.4143C115.736 12.8447 115.37 12.6293 114.609 12.3572C113.936 12.1163 113.14 11.9496 112.315 11.8915C111.273 11.8179 110.645 12.3199 110.661 12.9138C110.665 13.0259 110.665 13.7145 110.665 13.7145C109.808 12.4907 108.429 11.639 107.512 11.3922C105.043 10.7258 102.465 11.3165 100.521 13.7884C98.9765 15.7526 97.9648 18.509 97.6782 21.1494C97.4111 23.6103 97.4604 25.7016 97.8244 27.4632C97.4317 29.2272 96.3025 31.0719 95.0258 31.0719C93.3935 31.0719 92.4648 29.76 92.4648 23.7637C92.4648 20.2659 92.5803 18.7449 92.6368 16.2149C92.6701 14.7576 92.7338 13.6383 92.7299 13.3846C92.7178 12.6058 91.236 12.2133 90.5466 12.068C89.8251 11.9161 89.2022 11.8606 88.724 11.8926C88.0927 11.9354 87.6493 12.4486 87.6493 12.8316V13.7145C86.7924 12.4907 85.4138 11.639 84.4971 11.3922C82.0272 10.7258 79.4643 11.326 77.5059 13.7884C76.2289 15.394 75.195 17.174 74.6629 21.1144C74.5091 22.253 74.4412 23.3196 74.45 24.3161C73.9408 27.1464 71.6919 30.4083 69.8517 30.4083C68.775 30.4083 67.7497 28.5108 67.7497 24.4662C67.7497 19.0786 68.1169 11.4082 68.1786 10.6689C68.1786 10.6689 70.5033 10.633 70.9534 10.6282C72.1133 10.6167 73.1635 10.6416 74.7076 10.5698C75.4823 10.5339 76.2285 8.00742 75.429 7.69473C75.067 7.55321 72.5057 7.4292 71.4908 7.40962C70.6371 7.39212 68.2602 7.23221 68.2602 7.23221C68.2602 7.23221 68.4734 2.14072 68.5233 1.60285C68.5655 1.15428 67.9272 0.923769 67.5613 0.783443C66.6711 0.441676 65.8752 0.277616 64.9314 0.100799C63.6276 -0.143659 63.0357 0.0954593 62.9205 1.09584C62.7465 2.61332 62.6564 7.05925 62.6564 7.05925C61.6993 7.05925 58.4312 6.88926 57.474 6.88926C56.5845 6.88926 55.625 10.3648 56.8544 10.4075C58.2689 10.4573 60.734 10.5004 62.3682 10.5452C62.3682 10.5452 62.2954 18.3423 62.2954 20.7495C62.2954 21.0055 62.2963 21.2521 62.2983 21.4915C61.3989 25.7517 58.2307 28.053 58.2307 28.053C58.9111 25.2346 57.5214 23.1181 55.0185 21.3265C54.0959 20.6661 52.2757 19.4166 50.2386 18.0468C50.2386 18.0468 51.4184 16.9901 52.4647 14.8638C53.206 13.3579 53.238 11.6345 51.4181 11.2545C48.4118 10.6264 45.9324 12.6328 45.193 14.7751C44.6201 16.435 44.9257 17.6662 46.048 18.9457C46.1299 19.0392 46.2187 19.1344 46.3105 19.2305C45.6318 20.4193 44.6994 22.0199 43.9098 23.2611C41.7177 26.7073 40.0622 29.4331 38.8106 29.4331C37.8104 29.4331 37.8241 26.6657 37.8241 24.0746C37.8241 21.841 38.0056 18.4826 38.1505 15.0056C38.1985 13.8557 37.5656 13.2007 36.5049 12.6073C35.8605 12.2469 34.4852 11.5381 33.689 11.5381C32.4968 11.5381 29.057 11.6856 25.8069 20.2294C25.3972 21.3064 24.5925 23.2685 24.5925 23.2685L24.6617 12.9942C24.6617 12.7533 24.5203 12.5201 24.1971 12.3608C23.6494 12.0908 22.1865 11.5381 20.886 11.5381C20.2664 11.5381 19.9569 11.8001 19.9569 12.3222L19.8433 28.3968C19.8433 29.6182 19.8782 31.0431 20.0114 31.6662C20.1436 32.2904 20.3581 32.7977 20.6238 33.0997C20.8889 33.4011 21.1958 33.631 21.7018 33.726C22.1725 33.8141 24.7505 34.1149 24.8846 33.2195C25.0453 32.1465 25.0511 30.9859 26.4049 26.6574C28.5125 19.9185 31.2602 16.6305 32.5523 15.4628C32.7779 15.2587 33.0357 15.2465 33.0233 15.5806C32.9685 17.0577 32.7746 20.7498 32.6437 23.8862C32.2937 32.2797 33.974 33.8354 36.375 33.8354C38.2119 33.8354 40.8013 32.1764 43.5771 27.9779C45.3073 25.3613 46.9875 22.7957 48.195 20.9465C49.0363 21.6544 49.9801 22.4159 50.9238 23.2297C53.1163 25.1207 53.8361 26.9176 53.3585 28.6223C52.9932 29.9256 51.6175 31.2686 49.1692 29.9633C48.4556 29.5826 48.1507 29.2883 47.4334 28.8587C47.0479 28.6282 46.4596 28.5591 46.1068 28.8009C45.1898 29.429 44.6655 30.2282 44.3661 31.2173C44.0749 32.1797 45.1356 32.6885 46.2351 33.1335C47.1818 33.5165 49.2165 33.8636 50.5141 33.9031C55.5699 34.0567 59.6204 31.6846 62.4396 25.5654C62.9447 30.85 65.0924 33.8405 68.8247 33.8405C71.3197 33.8405 73.8213 30.9096 74.9152 28.0263C75.2293 29.2017 75.6941 30.2234 76.2945 31.0879C79.1702 35.2286 84.7488 34.3374 87.5511 30.8215C88.4171 29.7351 88.5494 29.3444 88.5494 29.3444C88.9581 32.6645 91.9 33.8247 93.5845 33.8247C95.4711 33.8247 97.419 33.0142 98.7842 30.2211C98.9406 30.5191 99.116 30.8087 99.3094 31.0882C102.185 35.2289 107.764 34.3377 110.566 30.8218C110.698 30.6566 110.813 30.5071 110.913 30.3727L110.995 32.5538L108.415 34.7041C104.091 38.306 100.806 41.038 100.564 44.2196C100.257 48.2763 103.875 49.784 106.616 49.9815C109.522 50.1913 112.015 48.7311 113.546 46.6873C114.892 44.8889 115.773 41.0176 115.709 37.1938C115.683 35.6626 115.641 33.7159 115.607 31.6291C117.125 30.027 118.836 28.002 120.41 25.6321C122.127 23.049 123.966 19.5806 124.907 16.8812C124.907 16.8812 126.505 16.8937 128.211 16.7922C128.756 16.7599 128.912 16.8607 128.812 17.2244C128.69 17.6632 126.657 24.789 128.513 29.5358C129.782 32.7852 132.645 33.8307 134.342 33.8307C136.329 33.8307 138.229 32.4672 139.248 30.4424C139.371 30.6682 139.499 30.8865 139.639 31.0882C142.515 35.2289 148.074 34.3327 150.896 30.8218C151.532 30.0297 151.894 29.3447 151.894 29.3447C152.499 32.7808 155.44 33.8423 157.124 33.8423C158.878 33.8423 160.543 33.1887 161.894 30.284C161.95 31.5632 162.039 32.6087 162.179 32.9383C162.265 33.14 162.763 33.3931 163.126 33.5153C164.731 34.0559 166.368 33.8004 166.973 33.6892C167.393 33.612 167.72 33.3062 167.764 32.5164C167.882 30.4427 167.81 26.9586 168.502 24.3689C169.663 20.0232 170.746 18.3373 171.26 17.503C171.547 17.0355 171.872 16.9583 171.884 17.4532C171.907 18.4544 171.962 21.3948 172.412 25.3453C172.743 28.2506 173.184 29.968 173.523 30.5115C174.491 32.0655 175.686 32.1391 176.66 32.1391C177.279 32.1391 178.574 31.9839 178.458 30.9948C178.402 30.5127 178.501 27.5332 179.646 23.2519C180.393 20.4561 181.64 17.9302 182.089 17.0064C182.255 16.6658 182.332 16.9343 182.329 16.9865C182.235 18.9119 182.022 25.2097 182.885 28.654C184.055 33.3204 187.44 33.8423 188.619 33.8423C191.137 33.8423 193.196 32.1017 193.89 27.5216C194.059 26.4183 193.811 25.5672 193.07 25.5672ZM87.5977 22.7357C87.4535 25.1595 86.9331 27.1858 86.098 28.6576C84.5872 31.3214 81.598 32.1661 80.2801 28.317C79.3298 25.5417 79.6533 21.757 80.0486 19.7129C80.6353 16.6789 82.1043 14.528 84.3976 14.7318C86.7532 14.9412 87.8984 17.6923 87.5977 22.7357ZM110.613 22.7707C110.478 25.0596 109.825 27.3588 109.113 28.6579C107.643 31.3401 104.569 32.1785 103.295 28.3173C102.424 25.679 102.633 22.2646 103.064 20.1134C103.623 17.3217 104.978 14.7321 107.413 14.7321C109.779 14.7318 110.946 17.0915 110.613 22.7707ZM111.213 38.3861C111.181 42.5615 110.459 46.2224 108.908 47.2857C106.709 48.7934 103.753 47.6624 104.365 44.6156C104.906 41.9195 107.468 39.166 111.22 35.8018C111.22 35.8018 111.227 36.569 111.213 38.3861ZM150.943 22.7951C150.815 25.3079 150.203 27.2721 149.443 28.6576C147.973 31.3398 144.921 32.1726 143.625 28.317C142.919 26.2154 142.886 22.7052 143.394 19.7723C143.911 16.7848 145.353 14.528 147.743 14.7318C150.099 14.9326 151.202 17.6923 150.943 22.7951Z" fill="black"/>
</svg>