<svg width="24" height="24" viewBox="0 0 24 24" fill="none" xmlns="http://www.w3.org/2000/svg">
<path d="M6.3667 10.5176C7.18542 10.5176 7.84913 11.1813 7.84913 12C7.84913 12.8187 7.18542 13.4824 6.3667 13.4824C5.54798 13.4824 4.88428 12.8187 4.88428 12C4.88428 11.1813 5.54798 10.5176 6.3667 10.5176Z" fill="currentColor"/>
<path d="M12 10.5176C12.8187 10.5176 13.4824 11.1813 13.4824 12C13.4824 12.8187 12.8187 13.4824 12 13.4824C11.1813 13.4824 10.5176 12.8187 10.5176 12C10.5176 11.1813 11.1813 10.5176 12 10.5176Z" fill="currentColor"/>
<path d="M17.6331 10.5176C18.4518 10.5176 19.1155 11.1813 19.1155 12C19.1155 12.8187 18.4518 13.4824 17.6331 13.4824C16.8143 13.4824 16.1506 12.8187 16.1506 12C16.1506 11.1813 16.8143 10.5176 17.6331 10.5176Z" fill="currentColor"/>
</svg>

