<svg width="24" height="24" viewBox="0 0 24 24" fill="none" xmlns="http://www.w3.org/2000/svg">
<path d="M16.5815 3C15.6435 3.01494 14.726 3.28315 13.9215 3.77753C13.1171 4.27192 12.4543 4.97497 12 5.8157C11.5457 4.97497 10.8829 4.27192 10.0785 3.77753C9.27405 3.28315 8.35651 3.01494 7.41852 3C5.92324 3.06654 4.51444 3.73656 3.49991 4.86368C2.48539 5.99079 1.9476 7.48338 2.00403 9.01535C2.00403 12.895 5.99076 17.1322 9.33441 20.0051C10.081 20.6477 11.0249 21 12 21C12.9751 21 13.919 20.6477 14.6656 20.0051C18.0092 17.1322 21.996 12.895 21.996 9.01535C22.0524 7.48338 21.5146 5.99079 20.5001 4.86368C19.4856 3.73656 18.0768 3.06654 16.5815 3ZM13.5952 18.6996C13.1487 19.0848 12.5837 19.296 12 19.296C11.4163 19.296 10.8513 19.0848 10.4048 18.6996C6.12487 15.0213 3.67003 11.4923 3.67003 9.01535C3.61308 7.93576 3.97521 6.8769 4.67742 6.06971C5.37964 5.26251 6.36497 4.77248 7.41852 4.70648C8.47206 4.77248 9.45739 5.26251 10.1596 6.06971C10.8618 6.8769 11.2239 7.93576 11.167 9.01535C11.167 9.24164 11.2548 9.45867 11.411 9.61868C11.5672 9.7787 11.7791 9.86859 12 9.86859C12.2209 9.86859 12.4328 9.7787 12.589 9.61868C12.7452 9.45867 12.833 9.24164 12.833 9.01535C12.7761 7.93576 13.1382 6.8769 13.8404 6.06971C14.5426 5.26251 15.5279 4.77248 16.5815 4.70648C17.635 4.77248 18.6204 5.26251 19.3226 6.06971C20.0248 6.8769 20.3869 7.93576 20.33 9.01535C20.33 11.4923 17.8751 15.0213 13.5952 18.6962V18.6996Z" fill="currentColor"/>
</svg>
