<svg width="24" height="24" viewBox="0 0 24 24" fill="none" xmlns="http://www.w3.org/2000/svg">
<g clip-path="url(#clip0_13_12940)">
<path d="M21.2658 2.73502C20.967 2.43263 20.5953 2.2124 20.1866 2.09562C19.7778 1.97884 19.3459 1.96945 18.9325 2.06836L5.59913 4.87669C4.83128 4.98199 4.10808 5.29959 3.51097 5.7937C2.91386 6.28781 2.46656 6.93882 2.21945 7.67341C1.97233 8.408 1.93522 9.19699 2.11228 9.95154C2.28934 10.7061 2.67355 11.3962 3.22163 11.9442L4.6533 13.375C4.73079 13.4525 4.79224 13.5445 4.83414 13.6457C4.87603 13.7469 4.89755 13.8555 4.89747 13.965V16.605C4.89931 16.9762 4.98476 17.3422 5.14747 17.6759L5.1408 17.6817L5.16247 17.7034C5.40665 18.1943 5.80545 18.5913 6.29747 18.8334L6.31913 18.855L6.32497 18.8484C6.6586 19.0111 7.02461 19.0965 7.3958 19.0984H10.0358C10.2567 19.0982 10.4686 19.1857 10.625 19.3417L12.0558 20.7725C12.4396 21.1605 12.8963 21.4688 13.3998 21.6794C13.9032 21.8901 14.4434 21.9991 14.9891 22C15.4439 21.9995 15.8956 21.9252 16.3266 21.78C17.0545 21.541 17.7011 21.1034 18.1935 20.5164C18.6859 19.9295 19.0045 19.2167 19.1133 18.4584L21.9258 5.09585C22.0298 4.67889 22.0237 4.24204 21.908 3.82816C21.7923 3.41428 21.571 3.03758 21.2658 2.73502ZM5.8333 12.1984L4.4008 10.7675C4.06723 10.442 3.83344 10.0281 3.72687 9.57432C3.6203 9.12058 3.64537 8.64585 3.79913 8.20585C3.94821 7.75446 4.22381 7.35538 4.59313 7.05607C4.96246 6.75677 5.40998 6.56984 5.88247 6.51752L19.0833 3.73835L6.56247 16.2609V13.965C6.56373 13.637 6.49994 13.3119 6.37478 13.0087C6.24962 12.7054 6.06558 12.43 5.8333 12.1984ZM17.4758 18.1734C17.4118 18.6336 17.2208 19.067 16.9242 19.4247C16.6276 19.7825 16.2372 20.0505 15.7967 20.1986C15.3563 20.3468 14.8833 20.3693 14.4307 20.2636C13.9782 20.1578 13.5641 19.928 13.235 19.6L11.8016 18.1667C11.5703 17.9341 11.2951 17.7496 10.992 17.624C10.6889 17.4984 10.3639 17.4342 10.0358 17.435H7.73997L20.2625 4.91669L17.4758 18.1734Z" fill="currentColor"/>
</g>
<defs>
<clipPath id="clip0_13_12940">
<rect width="20" height="20" fill="white" transform="translate(2 2)"/>
</clipPath>
</defs>
</svg>
