<svg width="17" height="12" viewBox="0 0 17 12" fill="none" xmlns="http://www.w3.org/2000/svg">
<path fill-rule="evenodd" clip-rule="evenodd" d="M8.50047 2.4006C10.967 2.40071 13.3393 3.29823 15.1269 4.90768C15.2615 5.03194 15.4767 5.03037 15.6092 4.90417L16.896 3.67435C16.9631 3.61034 17.0006 3.52363 17 3.43342C16.9994 3.34321 16.9609 3.25692 16.893 3.19366C12.2011 -1.06455 4.79908 -1.06455 0.10717 3.19366C0.0392049 3.25688 0.000642049 3.34314 1.53292e-05 3.43335C-0.00061139 3.52356 0.0367497 3.61029 0.103831 3.67435L1.39097 4.90417C1.52346 5.03056 1.73879 5.03213 1.87332 4.90768C3.66116 3.29813 6.03367 2.4006 8.50047 2.4006ZM8.4987 6.50849C9.8448 6.50841 11.1429 7.00652 12.1407 7.90604C12.2756 8.0337 12.4882 8.03094 12.6198 7.8998L13.8964 6.61563C13.9637 6.54827 14.001 6.45689 14 6.36194C13.999 6.26699 13.9599 6.17638 13.8913 6.1104C10.8528 3.29653 6.14723 3.29653 3.10872 6.1104C3.04008 6.17638 3.00092 6.26703 3.00002 6.36201C2.99912 6.457 3.03656 6.54837 3.10393 6.61563L4.3802 7.8998C4.51176 8.03094 4.72435 8.0337 4.85931 7.90604C5.85646 7.00712 7.15349 6.50905 8.4987 6.50849ZM10.9999 9.22765C11.0018 9.33019 10.9651 9.42906 10.8983 9.5009L8.73967 11.8903C8.67639 11.9605 8.59012 12 8.5001 12C8.41008 12 8.32381 11.9605 8.26053 11.8903L6.10149 9.5009C6.0348 9.42901 5.99811 9.33011 6.00008 9.22756C6.00206 9.12502 6.04253 9.02791 6.11194 8.95918C7.49055 7.68027 9.50965 7.68027 10.8883 8.95918C10.9576 9.02797 10.998 9.12511 10.9999 9.22765Z" fill="currentColor"/>
</svg>
