<svg width="24" height="24" viewBox="0 0 24 24" fill="none" xmlns="http://www.w3.org/2000/svg">
<path d="M19.3289 8.63901L9.59513 2.80482C8.97411 2.35007 8.23928 2.0762 7.47212 2.01359C6.70496 1.95097 5.93544 2.10204 5.2489 2.45006C4.56236 2.79808 3.98562 3.32944 3.58263 3.98523C3.17963 4.64101 2.96614 5.3956 2.96582 6.16531V17.8337C2.96596 18.6037 3.17946 19.3587 3.58264 20.0148C3.98582 20.6709 4.5629 21.2024 5.24984 21.5504C5.93678 21.8984 6.70671 22.0493 7.47419 21.9862C8.24166 21.9232 8.97667 21.6488 9.59763 21.1933L19.3314 15.3592C19.8592 14.9721 20.2884 14.4662 20.5843 13.8823C20.8801 13.2985 21.0343 12.6532 21.0343 11.9987C21.0343 11.3442 20.8801 10.6988 20.5843 10.115C20.2884 9.53117 19.8592 9.02523 19.3314 8.63817L19.3289 8.63901ZM18.3421 14.0148L8.60832 19.849C8.23577 20.1212 7.79517 20.2851 7.33527 20.3224C6.87537 20.3597 6.41412 20.269 6.00257 20.0604C5.59102 19.8517 5.24522 19.5333 5.00346 19.1403C4.76169 18.7473 4.63338 18.2951 4.63273 17.8337V6.16531C4.62811 5.70303 4.754 5.24883 4.99593 4.85489C5.23787 4.46095 5.58604 4.14325 6.00043 3.93832C6.35289 3.75903 6.74266 3.66537 7.1381 3.66494C7.66809 3.66697 8.18343 3.83904 8.60832 4.15585L18.3421 9.99004C18.6584 10.2223 18.9156 10.5258 19.0929 10.8759C19.2701 11.226 19.3625 11.6129 19.3625 12.0053C19.3625 12.3978 19.2701 12.7847 19.0929 13.1348C18.9156 13.4849 18.6584 13.7883 18.3421 14.0206V14.0148Z" fill="currentColor"/>
</svg>

