<svg width="20" height="20" viewBox="0 0 20 20" fill="none" xmlns="http://www.w3.org/2000/svg">
<path d="M14.6667 7.51666V6.52777C14.6667 5.23852 14.175 4.00208 13.2999 3.09044C12.4247 2.17881 11.2377 1.66666 10 1.66666C8.76236 1.66666 7.57538 2.17881 6.70021 3.09044C5.82504 4.00208 5.33337 5.23852 5.33337 6.52777V7.51666C4.73961 7.78659 4.23424 8.23091 3.87904 8.79528C3.52384 9.35964 3.33423 10.0196 3.33337 10.6944V14.8611C3.33443 15.7817 3.68596 16.6642 4.31085 17.3151C4.93575 17.966 5.78298 18.3322 6.66671 18.3333H13.3334C14.2171 18.3322 15.0643 17.966 15.6892 17.3151C16.3141 16.6642 16.6656 15.7817 16.6667 14.8611V10.6944C16.6659 10.0196 16.4762 9.35964 16.121 8.79528C15.7658 8.23091 15.2605 7.78659 14.6667 7.51666ZM6.66671 6.52777C6.66671 5.60688 7.0179 4.7237 7.64302 4.07254C8.26814 3.42137 9.11599 3.05555 10 3.05555C10.8841 3.05555 11.7319 3.42137 12.3571 4.07254C12.9822 4.7237 13.3334 5.60688 13.3334 6.52777V7.22221H6.66671V6.52777ZM15.3334 14.8611C15.3334 15.4136 15.1227 15.9435 14.7476 16.3342C14.3725 16.7249 13.8638 16.9444 13.3334 16.9444H6.66671C6.13627 16.9444 5.62757 16.7249 5.25249 16.3342C4.87742 15.9435 4.66671 15.4136 4.66671 14.8611V10.6944C4.66671 10.1419 4.87742 9.612 5.25249 9.2213C5.62757 8.83059 6.13627 8.6111 6.66671 8.6111H13.3334C13.8638 8.6111 14.3725 8.83059 14.7476 9.2213C15.1227 9.612 15.3334 10.1419 15.3334 10.6944V14.8611Z" fill="currentColor"/>
<path d="M9.99996 11.6667C9.77895 11.6667 9.56698 11.7325 9.4107 11.8497C9.25442 11.9669 9.16663 12.1259 9.16663 12.2917V13.5417C9.16663 13.7074 9.25442 13.8664 9.4107 13.9836C9.56698 14.1008 9.77895 14.1667 9.99996 14.1667C10.221 14.1667 10.4329 14.1008 10.5892 13.9836C10.7455 13.8664 10.8333 13.7074 10.8333 13.5417V12.2917C10.8333 12.1259 10.7455 11.9669 10.5892 11.8497C10.4329 11.7325 10.221 11.6667 9.99996 11.6667Z" fill="currentColor"/>
</svg>

