<svg width="28" height="24" viewBox="0 0 28 24" fill="none" xmlns="http://www.w3.org/2000/svg">
<path d="M22.5555 17H5.4444C5.01485 17 4.66663 17.2985 4.66663 17.6667C4.66663 18.0349 5.01485 18.3333 5.4444 18.3333H22.5555C22.9851 18.3333 23.3333 18.0349 23.3333 17.6667C23.3333 17.2985 22.9851 17 22.5555 17Z" fill="currentColor"/>
<path d="M22.5555 11.3331H5.4444C5.01485 11.3331 4.66663 11.6316 4.66663 11.9998C4.66663 12.368 5.01485 12.6665 5.4444 12.6665H22.5555C22.9851 12.6665 23.3333 12.368 23.3333 11.9998C23.3333 11.6316 22.9851 11.3331 22.5555 11.3331Z" fill="currentColor"/>
<path d="M22.5555 5.66687H5.4444C5.01485 5.66687 4.66663 5.96535 4.66663 6.33354C4.66663 6.70172 5.01485 7.0002 5.4444 7.0002H22.5555C22.9851 7.0002 23.3333 6.70172 23.3333 6.33354C23.3333 5.96535 22.9851 5.66687 22.5555 5.66687Z" fill="currentColor"/>
</svg>
